<svg xmlns="http://www.w3.org/2000/svg" viewBox="0 0 1024 1024" role="img" aria-label="Inventory backpack icon">
  <g fill="#98F300">
    <path d="M512 72c-119 0-198 72-198 181v44h95v-44c0-55 38-90 103-90s103 35 103 90v44h95v-44C710 144 631 72 512 72Z" />
    <path d="M290 276h424c86 0 156 70 156 156v319c0 89-72 161-161 161H285c-89 0-161-72-161-161V442c0-92 75-166 166-166Z" />
    <path d="M176 430c0-32 26-58 58-58h34v271h-34c-32 0-58-26-58-58V430Z" />
    <path d="M756 372h34c32 0 58 26 58 58v155c0 32-26 58-58 58h-34V372Z" />
    <path d="M344 626c0-31 25-56 56-56h224c31 0 56 25 56 56v101c0 31-25 56-56 56H400c-31 0-56-25-56-56V626Z" />
  </g>
</svg>
